<svg width="18" height="20" viewBox="0 0 18 20" fill="none" xmlns="http://www.w3.org/2000/svg">
<path d="M13.1666 11.6667C13.1666 11.8877 13.0788 12.0997 12.9226 12.2559C12.7663 12.4122 12.5543 12.5 12.3333 12.5H5.66663C5.44561 12.5 5.23365 12.4122 5.07737 12.2559C4.92109 12.0997 4.83329 11.8877 4.83329 11.6667C4.83329 11.4457 4.92109 11.2337 5.07737 11.0774C5.23365 10.9211 5.44561 10.8334 5.66663 10.8334H12.3333C12.5543 10.8334 12.7663 10.9211 12.9226 11.0774C13.0788 11.2337 13.1666 11.4457 13.1666 11.6667ZM9.83329 14.1667H5.66663C5.44561 14.1667 5.23365 14.2545 5.07737 14.4108C4.92109 14.567 4.83329 14.779 4.83329 15C4.83329 15.221 4.92109 15.433 5.07737 15.5893C5.23365 15.7456 5.44561 15.8334 5.66663 15.8334H9.83329C10.0543 15.8334 10.2663 15.7456 10.4225 15.5893C10.5788 15.433 10.6666 15.221 10.6666 15C10.6666 14.779 10.5788 14.567 10.4225 14.4108C10.2663 14.2545 10.0543 14.1667 9.83329 14.1667ZM17.3333 8.73752V15.8334C17.332 16.938 16.8926 17.9971 16.1114 18.7782C15.3303 19.5593 14.2713 19.9987 13.1666 20H4.83329C3.72863 19.9987 2.66959 19.5593 1.88848 18.7782C1.10736 17.9971 0.667949 16.938 0.666626 15.8334V4.16669C0.667949 3.06202 1.10736 2.00298 1.88848 1.22187C2.66959 0.440754 3.72863 0.00134242 4.83329 1.92072e-05H8.59579C9.36214 -0.00195323 10.1213 0.148009 10.8293 0.441235C11.5373 0.734461 12.1802 1.16513 12.7208 1.70835L15.6241 4.61335C16.1677 5.15355 16.5986 5.79623 16.892 6.50416C17.1854 7.2121 17.3354 7.9712 17.3333 8.73752ZM11.5425 2.88669C11.2802 2.63265 10.9857 2.41412 10.6666 2.23669V5.83335C10.6666 6.05437 10.7544 6.26633 10.9107 6.42261C11.067 6.57889 11.2789 6.66669 11.5 6.66669H15.0966C14.9191 6.34768 14.7003 6.05347 14.4458 5.79169L11.5425 2.88669ZM15.6666 8.73752C15.6666 8.60002 15.64 8.46835 15.6275 8.33335H11.5C10.8369 8.33335 10.201 8.06996 9.73219 7.60112C9.26335 7.13228 8.99996 6.49639 8.99996 5.83335V1.70585C8.86496 1.69335 8.73246 1.66669 8.59579 1.66669H4.83329C4.17025 1.66669 3.53437 1.93008 3.06553 2.39892C2.59669 2.86776 2.33329 3.50364 2.33329 4.16669V15.8334C2.33329 16.4964 2.59669 17.1323 3.06553 17.6011C3.53437 18.07 4.17025 18.3334 4.83329 18.3334H13.1666C13.8297 18.3334 14.4656 18.07 14.9344 17.6011C15.4032 17.1323 15.6666 16.4964 15.6666 15.8334V8.73752Z" fill="#75819A"/>
</svg>
