<svg width="11" height="20" viewBox="0 0 11 20" fill="none" xmlns="http://www.w3.org/2000/svg">
<path d="M9.30832 20C9.19865 20.0006 9.08993 19.9796 8.9884 19.9381C8.88686 19.8967 8.79452 19.8356 8.71665 19.7583L1.90832 12.95C1.52029 12.5629 1.21244 12.1031 1.00238 11.5969C0.792327 11.0907 0.684204 10.5481 0.684204 9.99999C0.684204 9.45193 0.792327 8.90925 1.00238 8.40304C1.21244 7.89683 1.52029 7.43704 1.90832 7.04999L8.71665 0.241658C8.79435 0.16396 8.88659 0.102326 8.98811 0.0602753C9.08963 0.018225 9.19844 -0.00341797 9.30832 -0.00341797C9.4182 -0.00341797 9.52701 0.018225 9.62853 0.0602753C9.73004 0.102326 9.82229 0.16396 9.89998 0.241658C9.97768 0.319357 10.0393 0.411599 10.0814 0.513117C10.1234 0.614636 10.1451 0.723442 10.1451 0.833325C10.1451 0.943208 10.1234 1.05201 10.0814 1.15353C10.0393 1.25505 9.97768 1.34729 9.89998 1.42499L3.09165 8.23333C2.62348 8.70208 2.36052 9.33749 2.36052 9.99999C2.36052 10.6625 2.62348 11.2979 3.09165 11.7667L9.89998 18.575C9.97809 18.6525 10.0401 18.7446 10.0824 18.8462C10.1247 18.9477 10.1465 19.0566 10.1465 19.1667C10.1465 19.2767 10.1247 19.3856 10.0824 19.4871C10.0401 19.5887 9.97809 19.6809 9.89998 19.7583C9.82212 19.8356 9.72977 19.8967 9.62824 19.9381C9.52671 19.9796 9.41799 20.0006 9.30832 20Z" fill="#374258"/>
</svg>
