<svg width="20" height="20" viewBox="0 0 20 20" fill="none" xmlns="http://www.w3.org/2000/svg">
<g clip-path="url(#clip0_110_436)">
<path d="M5.83333 0H3.33333C2.44928 0 1.60143 0.35119 0.976311 0.976311C0.35119 1.60143 0 2.44928 0 3.33333L0 5.83333C0 6.71739 0.35119 7.56524 0.976311 8.19036C1.60143 8.81548 2.44928 9.16667 3.33333 9.16667H5.83333C6.71739 9.16667 7.56524 8.81548 8.19036 8.19036C8.81548 7.56524 9.16667 6.71739 9.16667 5.83333V3.33333C9.16667 2.44928 8.81548 1.60143 8.19036 0.976311C7.56524 0.35119 6.71739 0 5.83333 0ZM7.5 5.83333C7.5 6.27536 7.32441 6.69928 7.01184 7.01184C6.69928 7.32441 6.27536 7.5 5.83333 7.5H3.33333C2.89131 7.5 2.46738 7.32441 2.15482 7.01184C1.84226 6.69928 1.66667 6.27536 1.66667 5.83333V3.33333C1.66667 2.89131 1.84226 2.46738 2.15482 2.15482C2.46738 1.84226 2.89131 1.66667 3.33333 1.66667H5.83333C6.27536 1.66667 6.69928 1.84226 7.01184 2.15482C7.32441 2.46738 7.5 2.89131 7.5 3.33333V5.83333Z" fill="#75819A"/>
<path d="M16.6667 0H14.1667C13.2827 0 12.4348 0.351189 11.8097 0.976311C11.1846 1.60143 10.8334 2.44928 10.8334 3.33333V5.83333C10.8334 6.71739 11.1846 7.56523 11.8097 8.19036C12.4348 8.81548 13.2827 9.16667 14.1667 9.16667H16.6667C17.5508 9.16667 18.3986 8.81548 19.0237 8.19036C19.6489 7.56523 20 6.71739 20 5.83333V3.33333C20 2.44928 19.6489 1.60143 19.0237 0.976311C18.3986 0.351189 17.5508 0 16.6667 0ZM18.3334 5.83333C18.3334 6.27536 18.1578 6.69928 17.8452 7.01184C17.5327 7.3244 17.1087 7.5 16.6667 7.5H14.1667C13.7247 7.5 13.3008 7.3244 12.9882 7.01184C12.6756 6.69928 12.5 6.27536 12.5 5.83333V3.33333C12.5 2.89131 12.6756 2.46738 12.9882 2.15482C13.3008 1.84226 13.7247 1.66667 14.1667 1.66667H16.6667C17.1087 1.66667 17.5327 1.84226 17.8452 2.15482C18.1578 2.46738 18.3334 2.89131 18.3334 3.33333V5.83333Z" fill="#75819A"/>
<path d="M5.83333 10.8335H3.33333C2.44928 10.8335 1.60143 11.1847 0.976311 11.8098C0.351189 12.4349 0 13.2828 0 14.1668L0 16.6668C0 17.5509 0.351189 18.3987 0.976311 19.0239C1.60143 19.649 2.44928 20.0002 3.33333 20.0002H5.83333C6.71739 20.0002 7.56523 19.649 8.19036 19.0239C8.81548 18.3987 9.16667 17.5509 9.16667 16.6668V14.1668C9.16667 13.2828 8.81548 12.4349 8.19036 11.8098C7.56523 11.1847 6.71739 10.8335 5.83333 10.8335ZM7.5 16.6668C7.5 17.1089 7.3244 17.5328 7.01184 17.8453C6.69928 18.1579 6.27536 18.3335 5.83333 18.3335H3.33333C2.89131 18.3335 2.46738 18.1579 2.15482 17.8453C1.84226 17.5328 1.66667 17.1089 1.66667 16.6668V14.1668C1.66667 13.7248 1.84226 13.3009 2.15482 12.9883C2.46738 12.6758 2.89131 12.5002 3.33333 12.5002H5.83333C6.27536 12.5002 6.69928 12.6758 7.01184 12.9883C7.3244 13.3009 7.5 13.7248 7.5 14.1668V16.6668Z" fill="#75819A"/>
<path d="M16.6667 10.8335H14.1667C13.2827 10.8335 12.4348 11.1847 11.8097 11.8098C11.1846 12.4349 10.8334 13.2828 10.8334 14.1668V16.6668C10.8334 17.5509 11.1846 18.3987 11.8097 19.0239C12.4348 19.649 13.2827 20.0002 14.1667 20.0002H16.6667C17.5508 20.0002 18.3986 19.649 19.0237 19.0239C19.6489 18.3987 20 17.5509 20 16.6668V14.1668C20 13.2828 19.6489 12.4349 19.0237 11.8098C18.3986 11.1847 17.5508 10.8335 16.6667 10.8335ZM18.3334 16.6668C18.3334 17.1089 18.1578 17.5328 17.8452 17.8453C17.5327 18.1579 17.1087 18.3335 16.6667 18.3335H14.1667C13.7247 18.3335 13.3008 18.1579 12.9882 17.8453C12.6756 17.5328 12.5 17.1089 12.5 16.6668V14.1668C12.5 13.7248 12.6756 13.3009 12.9882 12.9883C13.3008 12.6758 13.7247 12.5002 14.1667 12.5002H16.6667C17.1087 12.5002 17.5327 12.6758 17.8452 12.9883C18.1578 13.3009 18.3334 13.7248 18.3334 14.1668V16.6668Z" fill="#75819A"/>
</g>
<defs>
<clipPath id="clip0_110_436">
<rect width="20" height="20" fill="white"/>
</clipPath>
</defs>
</svg>
