<svg width="30" height="30" viewBox="0 0 30 30" fill="none" xmlns="http://www.w3.org/2000/svg">
<g clip-path="url(#clip0_110_214)">
<path d="M1.25 5.93734H4.67C4.9383 6.9245 5.52397 7.79595 6.33666 8.41725C7.14935 9.03855 8.1439 9.37516 9.16687 9.37516C10.1898 9.37516 11.1844 9.03855 11.9971 8.41725C12.8098 7.79595 13.3955 6.9245 13.6637 5.93734H28.75C29.0815 5.93734 29.3995 5.80564 29.6339 5.57122C29.8683 5.3368 30 5.01886 30 4.68734C30 4.35581 29.8683 4.03787 29.6339 3.80345C29.3995 3.56903 29.0815 3.43734 28.75 3.43734H13.6637C13.3955 2.45017 12.8098 1.57872 11.9971 0.957422C11.1844 0.336126 10.1898 -0.000488281 9.16687 -0.000488281C8.1439 -0.000488281 7.14935 0.336126 6.33666 0.957422C5.52397 1.57872 4.9383 2.45017 4.67 3.43734H1.25C0.918479 3.43734 0.600537 3.56903 0.366117 3.80345C0.131696 4.03787 0 4.35581 0 4.68734C0 5.01886 0.131696 5.3368 0.366117 5.57122C0.600537 5.80564 0.918479 5.93734 1.25 5.93734ZM9.16625 2.49984C9.5989 2.49984 10.0218 2.62813 10.3816 2.8685C10.7413 3.10886 11.0217 3.4505 11.1872 3.85022C11.3528 4.24993 11.3961 4.68976 11.3117 5.1141C11.2273 5.53843 11.019 5.9282 10.713 6.23413C10.4071 6.54006 10.0173 6.7484 9.59301 6.8328C9.16868 6.91721 8.72884 6.87389 8.32913 6.70832C7.92942 6.54276 7.58778 6.26238 7.34741 5.90265C7.10704 5.54291 6.97875 5.11998 6.97875 4.68734C6.97941 4.10738 7.21009 3.55136 7.62018 3.14127C8.03028 2.73118 8.58629 2.5005 9.16625 2.49984Z" fill="#B2BBCE"/>
<path d="M28.75 13.7501H25.33C25.0621 12.7627 24.4767 11.8909 23.6641 11.2694C22.8515 10.6478 21.8568 10.311 20.8337 10.311C19.8107 10.311 18.816 10.6478 18.0034 11.2694C17.1908 11.8909 16.6054 12.7627 16.3375 13.7501H1.25C0.918479 13.7501 0.600537 13.8818 0.366117 14.1162C0.131696 14.3506 0 14.6686 0 15.0001C0 15.3316 0.131696 15.6495 0.366117 15.884C0.600537 16.1184 0.918479 16.2501 1.25 16.2501H16.3375C16.6054 17.2375 17.1908 18.1092 18.0034 18.7308C18.816 19.3523 19.8107 19.6891 20.8337 19.6891C21.8568 19.6891 22.8515 19.3523 23.6641 18.7308C24.4767 18.1092 25.0621 17.2375 25.33 16.2501H28.75C29.0815 16.2501 29.3995 16.1184 29.6339 15.884C29.8683 15.6495 30 15.3316 30 15.0001C30 14.6686 29.8683 14.3506 29.6339 14.1162C29.3995 13.8818 29.0815 13.7501 28.75 13.7501ZM20.8337 17.1876C20.4011 17.1876 19.9782 17.0593 19.6184 16.8189C19.2587 16.5786 18.9783 16.2369 18.8128 15.8372C18.6472 15.4375 18.6039 14.9977 18.6883 14.5733C18.7727 14.149 18.981 13.7592 19.287 13.4533C19.5929 13.1474 19.9827 12.939 20.407 12.8546C20.8313 12.7702 21.2712 12.8135 21.6709 12.9791C22.0706 13.1447 22.4122 13.425 22.6526 13.7848C22.893 14.1445 23.0212 14.5674 23.0212 15.0001C23.0206 15.58 22.7899 16.1361 22.3798 16.5461C21.9697 16.9562 21.4137 17.1869 20.8337 17.1876Z" fill="#B2BBCE"/>
<path d="M28.75 24.0623H13.6637C13.3955 23.0752 12.8098 22.2037 11.9971 21.5824C11.1844 20.9611 10.1898 20.6245 9.16687 20.6245C8.1439 20.6245 7.14935 20.9611 6.33666 21.5824C5.52397 22.2037 4.9383 23.0752 4.67 24.0623H1.25C0.918479 24.0623 0.600537 24.194 0.366117 24.4285C0.131696 24.6629 0 24.9808 0 25.3123C0 25.6439 0.131696 25.9618 0.366117 26.1962C0.600537 26.4306 0.918479 26.5623 1.25 26.5623H4.67C4.9383 27.5495 5.52397 28.421 6.33666 29.0422C7.14935 29.6635 8.1439 30.0002 9.16687 30.0002C10.1898 30.0002 11.1844 29.6635 11.9971 29.0422C12.8098 28.421 13.3955 27.5495 13.6637 26.5623H28.75C29.0815 26.5623 29.3995 26.4306 29.6339 26.1962C29.8683 25.9618 30 25.6439 30 25.3123C30 24.9808 29.8683 24.6629 29.6339 24.4285C29.3995 24.194 29.0815 24.0623 28.75 24.0623ZM9.16625 27.4998C8.7336 27.4998 8.31067 27.3715 7.95094 27.1312C7.59121 26.8908 7.31083 26.5492 7.14526 26.1495C6.9797 25.7497 6.93638 25.3099 7.02078 24.8856C7.10519 24.4612 7.31353 24.0715 7.61945 23.7655C7.92538 23.4596 8.31516 23.2513 8.73949 23.1669C9.16382 23.0825 9.60366 23.1258 10.0034 23.2914C10.4031 23.4569 10.7447 23.7373 10.9851 24.097C11.2255 24.4568 11.3538 24.8797 11.3538 25.3123C11.3528 25.8922 11.122 26.448 10.712 26.858C10.3019 27.2681 9.74611 27.4988 9.16625 27.4998Z" fill="#B2BBCE"/>
</g>
<defs>
<clipPath id="clip0_110_214">
<rect width="30" height="30" fill="white"/>
</clipPath>
</defs>
</svg>
