<svg width="20" height="20" viewBox="0 0 20 20" fill="none" xmlns="http://www.w3.org/2000/svg">
<path d="M9.41084 14.7558L6.66667 17.5V0.833333C6.66667 0.3725 6.29417 0 5.83334 0C5.37251 0 5 0.3725 5 0.833333V17.5L2.25584 14.7558C1.93 14.43 1.40334 14.43 1.0775 14.7558C0.751672 15.0817 0.751672 15.6083 1.0775 15.9342L4.655 19.5117C4.98 19.8367 5.40667 19.9992 5.83334 19.9992C6.26 19.9992 6.68667 19.8367 7.01167 19.5117L10.5892 15.9342C10.915 15.6083 10.915 15.0817 10.5892 14.7558C10.2633 14.43 9.73667 14.43 9.41084 14.7558ZM18.9225 5.24417C19.2483 4.91833 19.2483 4.39167 18.9225 4.06583L15.345 0.488333C15.02 0.163333 14.5933 0 14.1667 0C13.74 0 13.3133 0.1625 12.9883 0.4875L9.41084 4.065C9.08501 4.39083 9.08501 4.9175 9.41084 5.24333C9.73667 5.56917 10.2633 5.56917 10.5892 5.24333L13.3333 2.49917V19.1667C13.3333 19.6275 13.7058 20 14.1667 20C14.6275 20 15 19.6275 15 19.1667V2.5L17.7442 5.24417C18.07 5.57 18.5967 5.57 18.9225 5.24417Z" fill="#374258"/>
</svg>
