<svg width="30" height="30" viewBox="0 0 30 30" fill="none" xmlns="http://www.w3.org/2000/svg">
<path d="M15 0C12.0333 0 9.13319 0.879735 6.66645 2.52796C4.19972 4.17618 2.27713 6.51886 1.14181 9.25975C0.00649929 12.0006 -0.290551 15.0166 0.288228 17.9264C0.867006 20.8361 2.29562 23.5088 4.3934 25.6066C6.49119 27.7044 9.16394 29.133 12.0737 29.7118C14.9834 30.2906 17.9994 29.9935 20.7403 28.8582C23.4811 27.7229 25.8238 25.8003 27.472 23.3336C29.1203 20.8668 30 17.9667 30 15C29.9957 11.0231 28.414 7.21026 25.6019 4.39815C22.7897 1.58604 18.9769 0.00430135 15 0ZM26.9663 11.4L15.8313 13.565C15.656 13.2945 15.5022 13.0107 15.3713 12.7163L11.1963 3.09125C12.7768 2.58465 14.4425 2.39831 16.0959 2.54314C17.7493 2.68796 19.3573 3.16104 20.8257 3.9347C22.2941 4.70836 23.5935 5.76707 24.6478 7.0489C25.7022 8.33073 26.4904 9.80993 26.9663 11.4ZM15 27.5C12.2339 27.501 9.54567 26.5841 7.35678 24.8929C5.1679 23.2017 3.60213 20.8319 2.90498 18.1551C2.20782 15.4783 2.4187 12.6458 3.50455 10.1018C4.5904 7.55769 6.48982 5.44591 8.90501 4.0975L13.0775 13.7113C13.6712 15.0777 14.6035 16.2703 15.7863 17.1763L24.1025 23.5413C22.9376 24.7897 21.5284 25.7854 19.9626 26.4664C18.3967 27.1474 16.7076 27.4992 15 27.5ZM25.625 21.5563L17.9688 15.6963L27.445 13.855C27.4788 14.23 27.5025 14.6138 27.5025 15C27.5014 17.3179 26.851 19.5891 25.625 21.5563Z" fill="#B2BBCE"/>
</svg>
